<svg width="42" height="44" viewBox="0 0 42 44" fill="none" xmlns="http://www.w3.org/2000/svg">
<path d="M42 22.2222C42 10.3469 32.5992 0.722229 21 0.722229C9.40083 0.722229 0 10.3469 0 22.2222C0 32.9555 7.67812 41.8494 17.7188 43.4619V28.4371H12.3867V22.2222H17.7188V17.4855C17.7188 12.0979 20.8524 9.12067 25.6511 9.12067C27.948 9.12067 30.3516 9.54059 30.3516 9.54059V14.8316H27.702C25.0933 14.8316 24.2812 16.4903 24.2812 18.191V22.2222H30.1054L29.1744 28.4371H24.2812V43.4619C34.3219 41.8494 42 32.9555 42 22.2222Z" fill="#1877F2"/>
<path d="M29.1745 28.4371L30.1055 22.2222H24.2813V18.191C24.2813 16.4903 25.0934 14.8316 27.702 14.8316H30.3516V9.54059C30.3516 9.54059 27.9481 9.12067 25.6512 9.12067C20.8524 9.12067 17.7188 12.0979 17.7188 17.4855V22.2222H12.3867V28.4371H17.7188V43.4619C18.7893 43.6341 19.8844 43.7222 21 43.7222C22.1157 43.7222 23.2108 43.6341 24.2813 43.4619V28.4371H29.1745Z" fill="white"/>
</svg>
