<svg width="43" height="44" viewBox="0 0 43 44" fill="none" xmlns="http://www.w3.org/2000/svg">
<path d="M0 22.2222C0 10.3481 9.62588 0.722229 21.5 0.722229C33.3741 0.722229 43 10.3481 43 22.2222C43 34.0964 33.3741 43.7222 21.5 43.7222C9.62588 43.7222 0 34.0964 0 22.2222Z" fill="white"/>
<path d="M21.5 16.508C23.2494 16.508 24.4295 17.2637 25.1024 17.8952L27.7318 15.3279C26.1169 13.8269 24.0155 12.9056 21.5 12.9056C17.8561 12.9056 14.7091 14.9966 13.1771 18.0401L16.1895 20.3796C16.9451 18.1332 19.0362 16.508 21.5 16.508Z" fill="#EA4335"/>
<path d="M30.444 22.4293C30.444 21.6632 30.3819 21.1042 30.2473 20.5245H21.5V23.982H26.6345C26.531 24.8412 25.972 26.1352 24.7298 27.0048L27.6697 29.2822C29.4295 27.6569 30.444 25.2657 30.444 22.4293Z" fill="#4285F4"/>
<path d="M16.1998 24.0648C16.0031 23.4851 15.8892 22.864 15.8892 22.2222C15.8892 21.5804 16.0031 20.9593 16.1895 20.3796L13.1771 18.0401C12.5456 19.303 12.1833 20.7212 12.1833 22.2222C12.1833 23.7232 12.5456 25.1414 13.1771 26.4044L16.1998 24.0648Z" fill="#FBBC05"/>
<path d="M21.5 31.5389C24.0155 31.5389 26.1273 30.7108 27.6697 29.2822L24.7298 27.0048C23.943 27.5534 22.8871 27.9365 21.5 27.9365C19.0362 27.9365 16.9452 26.3112 16.1998 24.0649L13.1874 26.4044C14.7195 29.4478 17.8561 31.5389 21.5 31.5389Z" fill="#34A853"/>
</svg>
