<svg width="293" height="293" viewBox="0 0 293 293" fill="none" xmlns="http://www.w3.org/2000/svg">
<circle cx="146.5" cy="146.5" r="146.5" fill="#C6ED73"/>
<mask id="mask0_1_19" style="mask-type:alpha" maskUnits="userSpaceOnUse" x="0" y="0" width="293" height="293">
<circle cx="146.5" cy="146.5" r="146.5" fill="#C6ED73"/>
</mask>
<g mask="url(#mask0_1_19)">
<path d="M75.5446 77.1577C50.8337 68.6854 41.6554 198.947 41.6554 268.137L146.5 304.296L246.755 268.137C259.181 243.285 254.169 216.48 249.226 192.24C260.523 115.142 236.753 90.2192 223.457 87.3951C212.16 24.9825 162.974 31.7368 139.44 41.8565C124.754 23.2175 105.551 34.7963 96.0193 41.8565C81.1927 47.5047 76.1329 65.979 75.5446 77.1577Z" fill="white" stroke="#345830" stroke-width="5"/>
</g>
<path d="M158.239 56.7336C155.321 57.9322 146.146 54.3148 143.857 56.7866L151.105 86.6396L169.027 108.38C171.756 103.699 169.619 74.482 169.493 77.7427C169.493 77.7427 168.059 77.6875 169.15 71.7282C166.978 72.9803 167.013 69.5072 167.341 66.5146C167.668 63.522 170.953 62.0028 163.965 64.67C157.844 67.0064 157.534 60.1358 158.239 56.7336Z" fill="#CFD9BB"/>
<path d="M117.423 106.155C114.505 107.354 105.33 103.736 103.041 106.208L110.289 136.061L128.211 157.802C130.94 153.121 128.803 123.904 128.677 127.164C128.677 127.164 127.243 127.109 128.334 121.15C126.162 122.402 126.197 118.929 126.525 115.936C126.852 112.944 130.137 111.425 123.149 114.092C117.028 116.428 116.718 109.557 117.423 106.155Z" fill="#CFD9BB"/>
<path d="M204.552 60.6015C202.041 61.452 194.84 57.4597 192.727 59.5092L195.886 87.0282L208.577 108.072C211.258 104.063 212.24 77.5228 211.832 80.4559C211.832 80.4559 210.658 80.2924 212.113 75.0003C210.211 75.9581 210.565 72.8261 211.115 70.1511C211.664 67.4761 214.506 66.3653 208.513 68.2186C203.264 69.8421 203.653 63.6163 204.552 60.6015Z" fill="#CFD9BB"/>
<path d="M166.269 88.606C168.387 98.1373 166.975 126.378 154.619 128.849C141.695 131.434 129.908 113.67 127.437 88.606C126.08 74.8385 131.674 58.2468 140.852 58.2468C160.348 58.2468 166.269 88.606 166.269 88.606Z" fill="#C6ED73"/>
<path d="M140.852 59.7468C149.706 59.7468 155.678 66.6348 159.538 74.114C161.442 77.8028 162.761 81.5068 163.604 84.2966C164.024 85.6885 164.323 86.8467 164.518 87.653C164.615 88.056 164.686 88.371 164.731 88.5827C164.754 88.6884 164.771 88.7686 164.782 88.821C164.788 88.847 164.792 88.8665 164.794 88.8786C164.795 88.8845 164.795 88.8889 164.796 88.8913L164.797 88.8932L164.8 88.9128L164.805 88.9313C165.81 93.4562 166.002 102.688 164.398 111.094C163.599 115.287 162.372 119.162 160.654 122.102C158.936 125.044 156.835 126.877 154.325 127.379C148.73 128.498 143.075 125.288 138.354 118.259C133.657 111.269 130.148 100.818 128.93 88.4587C128.273 81.8011 129.305 74.4567 131.584 68.8268C133.921 63.0544 137.258 59.7469 140.852 59.7468Z" stroke="#345830" stroke-opacity="0.71" stroke-width="3"/>
<path d="M209.689 87.194C209.689 103.571 205.1 123.907 194.51 119.318C182.154 113.964 172.976 93.1952 172.976 83.3109C172.976 73.4265 172.976 52.2458 182.154 52.2458C192.877 52.2458 209.689 66.7193 209.689 87.194Z" fill="#C6ED73"/>
<path d="M182.155 53.7458C186.934 53.746 193.443 57.0445 198.827 63.0436C204.16 68.9869 208.189 77.3779 208.189 87.194C208.189 95.2851 207.051 104.265 204.667 110.59C203.469 113.771 202.023 116.093 200.419 117.361C199.638 117.978 198.838 118.332 198.008 118.44C197.178 118.549 196.221 118.425 195.106 117.942C189.389 115.465 184.211 109.291 180.429 102.299C176.654 95.3204 174.476 87.9099 174.476 83.3112C174.476 78.344 174.48 70.7103 175.601 64.3307C176.163 61.1303 176.984 58.3884 178.132 56.4841C179.258 54.6168 180.564 53.7458 182.155 53.7458Z" stroke="#345830" stroke-opacity="0.71" stroke-width="3"/>
<path d="M247.21 126.173C248.786 132.536 247.478 156.5 238.283 158.149C228.665 159.875 220.151 142.906 218.312 126.173C216.666 111.199 223.686 101.314 230.517 101.314C245.026 101.314 247.21 126.173 247.21 126.173Z" fill="#C6ED73"/>
<path d="M230.516 102.814C236.735 102.814 240.567 108.127 242.902 114.276C244.04 117.272 244.746 120.286 245.167 122.562C245.377 123.696 245.515 124.64 245.6 125.297C245.643 125.625 245.672 125.882 245.69 126.054C245.699 126.139 245.706 126.204 245.71 126.246C245.712 126.267 245.714 126.283 245.715 126.293C245.715 126.298 245.716 126.301 245.716 126.303V126.305L245.725 126.42L245.754 126.533C246.101 127.936 246.317 130.474 246.273 133.601C246.23 136.695 245.933 140.254 245.31 143.658C244.685 147.079 243.745 150.256 242.459 152.64C241.158 155.051 239.657 156.379 238.018 156.673C236.12 157.013 234.195 156.46 232.255 155.027C230.296 153.581 228.396 151.283 226.677 148.329C223.24 142.425 220.704 134.208 219.803 126.009C219.008 118.778 220.319 112.884 222.549 108.854C224.805 104.777 227.853 102.815 230.516 102.814Z" stroke="#345830" stroke-opacity="0.71" stroke-width="3"/>
<path d="M228.752 110.323C228.752 115.265 230.87 115.618 232.988 117.03C235.106 118.442 231.576 106.087 228.752 110.323Z" fill="white"/>
<path d="M184.978 64.4312C184.978 69.3733 187.096 69.7264 189.214 71.1384C191.332 72.5505 187.802 60.195 184.978 64.4312Z" fill="white"/>
<path d="M139.793 70.0794C139.793 75.0215 141.911 75.3746 144.029 76.7866C146.147 78.1987 142.617 65.8432 139.793 70.0794Z" fill="white"/>
<path d="M184.978 138.734C178.271 141.205 172.475 145.646 168.74 148.425L175.8 176.859L203.078 186.39C203.078 170.152 211.807 164.857 205.247 166.186C200.354 167.178 205.54 157.519 206.865 154.619C203.251 156.069 196.619 154.704 196.981 151.442C197.342 148.18 209.336 147.559 190.788 146.975C178.882 146.601 184.978 143.676 184.978 138.734Z" fill="#CFD9BB"/>
<path d="M201.923 175.8C198.393 176.88 195.442 180.752 192.745 182.86L197.334 200.158L214.151 208.983C217.283 205.042 220.3 193.405 216.749 192.745C216.043 192.613 214.984 192.745 216.043 187.802C213.433 188.902 213.311 186.041 213.572 183.566C213.833 181.091 217.799 179.736 209.336 182.154C201.923 184.272 201.217 178.624 201.923 175.8Z" fill="#CFD9BB"/>
<path d="M125.319 136.263C128.143 152.501 122.275 167.681 111.552 167.681C100.829 167.681 90.7241 154.972 90.7241 136.263C90.7241 119.886 92.8422 107.316 100.608 107.316C113.67 107.316 122.495 120.024 125.319 136.263Z" fill="#C6ED73"/>
<path d="M100.609 108.816C106.593 108.816 111.664 111.708 115.634 116.64C119.625 121.596 122.46 128.575 123.841 136.52C125.214 144.414 124.455 151.969 122.133 157.479C119.804 163.006 116.072 166.181 111.552 166.181C106.815 166.181 102.019 163.367 98.3452 158.127C94.681 152.9 92.2242 145.357 92.2241 136.263C92.2241 128.099 92.7565 121.04 94.1948 116.065C94.9139 113.577 95.8253 111.737 96.9028 110.539C97.9382 109.389 99.1343 108.816 100.609 108.816Z" stroke="#345830" stroke-opacity="0.71" stroke-width="3"/>
<path d="M103.079 113.147C103.079 118.089 105.198 118.442 107.316 119.854C109.434 121.266 105.904 108.911 103.079 113.147Z" fill="white"/>
<path d="M199.384 121.018C192.705 138.557 186.34 143.986 186.34 143.986C181.193 148.691 176.951 146.093 177.072 153.279C177.117 155.933 179.97 153.87 186.53 155.272C197.358 157.585 199.308 153.378 199.762 148.088C192.348 151.612 206.405 124.611 201.821 131.22C198.344 136.233 197.449 136.839 197.843 135.063C198.917 130.23 199.683 124.322 199.384 121.018Z" fill="#CFD9BB"/>
<path d="M210.748 213.925C207.571 219.574 193.804 219.927 183.566 213.925C164.151 225.222 148.03 219.927 140.499 214.631C140.852 216.396 108.375 232.282 104.845 210.748C102.021 193.521 123.554 181.331 134.145 177.212C150.03 153.56 151.052 151.329 169.093 149.324C188.155 147.206 195.922 168.034 195.922 183.213C202.982 185.684 221.64 194.561 210.748 213.925Z" fill="#C6ED73" stroke="#345830" stroke-opacity="0.71" stroke-width="3"/>
<path d="M153.879 164.851C153.519 167.148 165.098 164.923 162.762 162.057C158.814 157.212 154.578 160.389 153.879 164.851Z" fill="white"/>
</svg>
